<?xml version="1.0" encoding="UTF-8" standalone="no"?>
<!-- Created with Inkscape (http://www.inkscape.org/) -->

<svg
   xmlns:dc="http://purl.org/dc/elements/1.1/"
   xmlns:cc="http://creativecommons.org/ns#"
   xmlns:rdf="http://www.w3.org/1999/02/22-rdf-syntax-ns#"
   xmlns:svg="http://www.w3.org/2000/svg"
   xmlns="http://www.w3.org/2000/svg"
   xmlns:sodipodi="http://sodipodi.sourceforge.net/DTD/sodipodi-0.dtd"
   xmlns:inkscape="http://www.inkscape.org/namespaces/inkscape"
   version="1.1"
   id="svg2"
   xml:space="preserve"
   width="217.26384"
   height="46.417332"
   viewBox="0 0 217.26384 46.417332"
   sodipodi:docname="move_goal_direction.svg"
   inkscape:version="0.92+devel unknown"><metadata
     id="metadata8"><rdf:RDF><cc:Work
         rdf:about=""><dc:format>image/svg+xml</dc:format><dc:type
           rdf:resource="http://purl.org/dc/dcmitype/StillImage" /><dc:title></dc:title></cc:Work></rdf:RDF></metadata><defs
     id="defs6"><clipPath
       clipPathUnits="userSpaceOnUse"
       id="clipPath18"><path
         d="m 43.07679,34.211369 h 218.295 V 325.27137 h -218.295 z"
         id="path16"
         inkscape:connector-curvature="0" /></clipPath><clipPath
       clipPathUnits="userSpaceOnUse"
       id="clipPath28"><path
         d="m 43.07679,34.211369 h 218.295 V 325.27137 h -218.295 z"
         id="path26"
         inkscape:connector-curvature="0" /></clipPath><clipPath
       clipPathUnits="userSpaceOnUse"
       id="clipPath168"><path
         d="m 43.07679,34.211369 h 218.295 V 325.27137 h -218.295 z"
         id="path166"
         inkscape:connector-curvature="0" /></clipPath><clipPath
       clipPathUnits="userSpaceOnUse"
       id="clipPath178"><path
         d="m 43.07679,34.211369 h 218.295 V 325.27137 h -218.295 z"
         id="path176"
         inkscape:connector-curvature="0" /></clipPath><clipPath
       clipPathUnits="userSpaceOnUse"
       id="clipPath188"><path
         d="m 43.07679,34.211369 h 218.295 V 325.27137 h -218.295 z"
         id="path186"
         inkscape:connector-curvature="0" /></clipPath><clipPath
       clipPathUnits="userSpaceOnUse"
       id="clipPath198"><path
         d="m 43.07679,34.211369 h 218.295 V 325.27137 h -218.295 z"
         id="path196"
         inkscape:connector-curvature="0" /></clipPath><clipPath
       clipPathUnits="userSpaceOnUse"
       id="clipPath208"><path
         d="m 43.07679,34.211369 h 218.295 V 325.27137 h -218.295 z"
         id="path206"
         inkscape:connector-curvature="0" /></clipPath><clipPath
       clipPathUnits="userSpaceOnUse"
       id="clipPath218"><path
         d="m 43.07679,34.211369 h 218.295 V 325.27137 h -218.295 z"
         id="path216"
         inkscape:connector-curvature="0" /></clipPath><clipPath
       clipPathUnits="userSpaceOnUse"
       id="clipPath228"><path
         d="m 43.07679,34.211369 h 218.295 V 325.27137 h -218.295 z"
         id="path226"
         inkscape:connector-curvature="0" /></clipPath></defs><sodipodi:namedview
     pagecolor="#ffffff"
     bordercolor="#666666"
     inkscape:document-rotation="0"
     borderopacity="1"
     objecttolerance="10"
     gridtolerance="10"
     guidetolerance="10"
     inkscape:pageopacity="0"
     inkscape:pageshadow="2"
     inkscape:window-width="1280"
     inkscape:window-height="960"
     id="namedview4"
     showgrid="false"
     fit-margin-top="0"
     fit-margin-left="0"
     fit-margin-right="0"
     fit-margin-bottom="0"
     inkscape:zoom="2.9067989"
     inkscape:cx="171.06375"
     inkscape:cy="69.58202"
     inkscape:window-x="0"
     inkscape:window-y="27"
     inkscape:window-maximized="1"
     inkscape:current-layer="g10" /><g
     id="g10"
     inkscape:groupmode="layer"
     inkscape:label="vis_traj_map_demo_01_bug_direct_neural"
     transform="matrix(1.3333333,0,0,-1.3333333,-87.754467,274.64661)"><g
       id="g212"><g
         id="g214"
         clip-path="url(#clipPath218)"><path
           d="m 214.68344,171.92196 c 2.89463,0 5.67109,1.15005 7.7179,3.19686 2.04681,2.04681 3.19685,4.82326 3.19685,7.71789 0,2.89463 -1.15004,5.67108 -3.19685,7.71789 -2.04681,2.04681 -4.82327,3.19686 -7.7179,3.19686 -2.89462,0 -5.67108,-1.15005 -7.71789,-3.19686 -2.04681,-2.04681 -3.19686,-4.82326 -3.19686,-7.71789 0,-2.89463 1.15005,-5.67108 3.19686,-7.71789 2.04681,-2.04681 4.82327,-3.19686 7.71789,-3.19686 z"
           style="fill:none;stroke:#aa305c;stroke-width:2.25000006;stroke-linecap:butt;stroke-linejoin:miter;stroke-miterlimit:10;stroke-dasharray:none;stroke-opacity:1"
           id="path220"
           inkscape:connector-curvature="0" /></g></g><g
       id="g22"><g
         id="g24"
         clip-path="url(#clipPath28)"><path
           d="m 79.45929,179.74137 -1.341658,0.2507 -1.394665,0.62 -1.107444,0.83082 -0.899303,1.01434 -0.700988,1.1553 -0.462088,1.20527 -0.26724,1.27249 -0.07281,1.32368 0.114015,1.37109 0.268596,1.29467 0.671885,1.8094 1.005994,1.77354 1.17839,1.55642 1.369671,1.40592 1.612751,1.32503 1.832134,1.22578 1.782479,0.98812 2.757155,1.21203 2.673594,0.92048 2.904969,0.73514 3.538839,0.59151 3.515357,0.30309 3.722467,0.0862 3.60708,-0.14508 4.89519,-0.4751 5.91355,-0.72602 6.7488,-1.08891 17.20388,-3.14101 18.48457,-3.70886 37.20566,-7.54742 7.4148,-1.68452 7.90319,-1.85185 3.14533,-0.80691 v 0"
           style="fill:none;stroke:#aa305c;stroke-width:0.75;stroke-linecap:square;stroke-linejoin:round;stroke-miterlimit:10;stroke-dasharray:none;stroke-opacity:1"
           id="path30"
           inkscape:connector-curvature="0" /></g></g><g
       id="g32" /><g
       id="g182"><g
         id="g184"
         clip-path="url(#clipPath188)"><path
           d="m 65.815852,180.10519 13.643438,4.54782 v -4.51143 l 0.363825,-0.0728 H 79.45929 v -4.51143 l -13.643438,4.54781 z"
           style="fill:#aa305c;fill-opacity:1;fill-rule:nonzero;stroke:none"
           id="path190"
           inkscape:connector-curvature="0" /></g></g><g
       id="g192"><g
         id="g194"
         clip-path="url(#clipPath198)"><path
           d="m 134.84862,199.25303 -14.206,-2.23958 0.74274,4.44987 -0.34688,0.13167 0.35886,-0.0599 0.74273,4.44987 z"
           style="fill:#aa305c;fill-opacity:1;fill-rule:nonzero;stroke:none"
           id="path200"
           inkscape:connector-curvature="0" /></g></g><g
       id="g202"><g
         id="g204"
         clip-path="url(#clipPath208)"><path
           d="m 201.07452,185.92269 -14.27271,-1.76515 0.89054,4.42266 -0.3423,0.14316 0.35666,-0.0718 0.89055,4.42266 12.47726,-7.15151 z"
           style="fill:#aa305c;fill-opacity:1;fill-rule:nonzero;stroke:none"
           id="path210"
           inkscape:connector-curvature="0" /></g></g><g
       id="g222"><g
         id="g224"
         clip-path="url(#clipPath228)"><path
           d="m 227.87854,179.36789 -14.35137,-0.92955 1.14702,4.36318 -0.33337,0.16288 0.35187,-0.0925 1.14703,4.36318 z"
           style="fill:#aa305c;fill-opacity:1;fill-rule:nonzero;stroke:none"
           id="path230"
           inkscape:connector-curvature="0" /></g></g><g
       id="g172"
       transform="translate(0.27444937,0.44396574)"><g
         id="g174"
         clip-path="url(#clipPath178)"><path
           d="m 221.48929,179.74137 h 7 m -3.5,-3.5 v 7"
           style="fill:#000000;fill-opacity:1;fill-rule:nonzero;stroke:#000000;stroke-width:1;stroke-linecap:butt;stroke-linejoin:round;stroke-miterlimit:10;stroke-dasharray:none;stroke-opacity:1"
           id="path180"
           inkscape:connector-curvature="0" /></g></g><g
       id="g162"><g
         id="g164"
         clip-path="url(#clipPath168)"><path
           d="m 75.95929,176.24137 7,7 m -7,0 7,-7"
           style="fill:#000000;fill-opacity:1;fill-rule:nonzero;stroke:#000000;stroke-width:1;stroke-linecap:butt;stroke-linejoin:round;stroke-miterlimit:10;stroke-dasharray:none;stroke-opacity:1"
           id="path170"
           inkscape:connector-curvature="0" /></g></g></g></svg>